# xmcd CD database file
#
# Track frame offsets:
#	150
#	20572
#	40595
#	61440
#	78910
#	103785
#	120572
#	136130
#	156492
#
# Disc length: 2296 seconds
#
# Revision: 1
# Processed by: cddbd v1.5.2PL0 Copyright (c) Steve Scherf et al.
# Submitted via: CDex 1.51
#
DISCID=6f08f609
DTITLE=Various Artist - Favourite Hits from the 70's and 80's
DYEAR=2001
DGENRE=Pop
TTITLE0=Four Tops - Loco in Acapulco
TTITLE1=Eurythmics - Missionary man
TTITLE2=Starship  We built this city
TTITLE3=Rick Astley - Whenever tou need somebody
TTITLE4=Mr Mister - Broken wings
TTITLE5=Boney M - Rivers of Babylon
TTITLE6=Smokie - Living next door to Alice
TTITLE7=Hall and Oates - Maneater
TTITLE8=Melba Moore - This is it
EXTD=kjhkiui YEAR: 2001
EXTT0=
EXTT1=
EXTT2=
EXTT3=
EXTT4=
EXTT5=
EXTT6=
EXTT7=
EXTT8=
PLAYORDER=
